<svg width="617" height="88" viewBox="0 0 617 88" fill="none" xmlns="http://www.w3.org/2000/svg">
<path fill-rule="evenodd" clip-rule="evenodd" d="M0.487488 20.082H38.9755V29.704H0.487488V20.082ZM0.487488 29.704H10.1096V68.192H0.487587L0.487488 29.704ZM38.9755 29.704H48.5981V68.192H38.9761L38.9755 29.704ZM87.085 29.704H77.464V68.192H87.085V29.704ZM77.464 20.082H48.5977L48.5981 29.704H77.464V20.082Z" fill="#333333"/>
<path fill-rule="evenodd" clip-rule="evenodd" d="M587.43 20.082H548.942V29.704H587.43V20.082ZM548.942 29.704H558.564V68.192H548.942V29.704ZM587.43 29.704H597.051V68.192H587.429L587.43 29.704Z" fill="#333333"/>
<path fill-rule="evenodd" clip-rule="evenodd" d="M337.258 20.082H346.88V58.5699H337.258V20.082ZM375.745 20.082H385.367V58.5699H375.745V20.082ZM375.745 58.5699V68.1919H346.879V58.5699H375.745Z" fill="#333333"/>
<path fill-rule="evenodd" clip-rule="evenodd" d="M103.925 20.082H140.007V29.704H103.925V20.082ZM130.385 68.1919V29.704H140.007V68.1919H130.385ZM106.329 39.326H130.384V48.948H106.33V58.5699H130.384L130.385 68.1919H106.329V58.5699H96.708V39.326H106.329Z" fill="#333333"/>
<path fill-rule="evenodd" clip-rule="evenodd" d="M204.955 20.082H214.577H233.821V29.704H214.577V39.326H233.821V29.704H243.443V39.326V48.948H214.577V58.5699H243.443V68.1919H214.577H204.955V20.082Z" fill="#333333"/>
<path fill-rule="evenodd" clip-rule="evenodd" d="M291.553 20.082H262.687V29.704H291.553V20.082ZM291.553 58.5699H262.688L262.687 29.704H253.066V58.57L262.688 58.5699L262.687 68.1919H291.553V58.5699ZM301.175 29.704H291.553V58.5699L301.175 58.57V29.704Z" fill="#333333"/>
<path fill-rule="evenodd" clip-rule="evenodd" d="M491.21 20.082H462.344V29.704H491.21V20.082ZM491.21 58.5699H462.344V29.704H452.722V58.57L462.344 58.5699V68.1919H491.21V58.5699ZM491.21 58.5699V29.704H500.832V58.57L491.21 58.5699Z" fill="#333333"/>
<path d="M520.076 0.838867H510.454V68.1928H520.076V0.838867Z" fill="#333333"/>
<path fill-rule="evenodd" clip-rule="evenodd" d="M539.319 0.838867H529.697V10.4609H539.319V0.838867ZM539.319 20.0829H529.697V68.1928H539.319V20.0829Z" fill="#333333"/>
<path fill-rule="evenodd" clip-rule="evenodd" d="M616.295 0.838867H606.673V10.4609H616.295V0.838867ZM616.295 20.0829H606.673V68.1928H616.295V20.0829Z" fill="#333333"/>
<path fill-rule="evenodd" clip-rule="evenodd" d="M156.846 0.838867H147.224V20.0829V29.7049V58.5709V68.1929H156.845H166.467V58.5709H156.846V29.7049H166.468V20.0829H156.846V0.838867Z" fill="#333333"/>
<path fill-rule="evenodd" clip-rule="evenodd" d="M185.711 0.838867H176.089V58.5709V68.1929H185.711H195.333V58.5709H185.711V29.7049H195.333V20.0829H185.711V0.838867Z" fill="#333333"/>
<path fill-rule="evenodd" clip-rule="evenodd" d="M433.478 20.082H404.612V29.704H433.478V20.082ZM433.478 58.5699H404.612V68.1919H433.478V58.5699ZM394.989 29.704H404.611V58.57H394.989V29.704ZM443.1 77.8139V58.57V56.1644V29.704H433.478V56.1644V58.5699V77.8139H443.1ZM404.612 77.8139H433.478V87.4355H404.612V77.8139Z" fill="#333333"/>
</svg>
