<svg width="700" height="123" viewBox="0 0 700 123" fill="none" xmlns="http://www.w3.org/2000/svg">
<line y1="84.2938" x2="700" y2="84.2938" stroke="#2D9CDB" stroke-dasharray="4 4"/>
<line y1="107.747" x2="700" y2="107.747" stroke="#2D9CDB" stroke-dasharray="4 4"/>
<line y1="12.1289" x2="700" y2="12.1289" stroke="#2D9CDB" stroke-dasharray="4 4"/>
<line y1="35.5825" x2="700" y2="35.5825" stroke="#2D9CDB" stroke-dasharray="4 4"/>
<line x1="38.3862" x2="38.3862" y2="120.275" stroke="#2D9CDB" stroke-dasharray="4 4"/>
<line x1="14.933" x2="14.933" y2="120.275" stroke="#2D9CDB" stroke-dasharray="4 4"/>
<line x1="654.795" x2="654.795" y2="120.275" stroke="#2D9CDB" stroke-dasharray="4 4"/>
<line x1="678.249" x2="678.249" y2="120.275" stroke="#2D9CDB" stroke-dasharray="4 4"/>
<path fill-rule="evenodd" clip-rule="evenodd" d="M38.4875 36.0825H76.9755V45.7045H38.4875V36.0825ZM38.4876 45.7045H48.1096V84.1925H38.4876V45.7045ZM76.9761 45.7045H86.5981V84.1925H76.9761V45.7045ZM125.085 45.7045H115.464V84.1925H125.085V45.7045ZM115.464 36.0825H86.5977V45.7045H115.464V36.0825Z" fill="#333333"/>
<path fill-rule="evenodd" clip-rule="evenodd" d="M625.43 36.0825H586.942V45.7045H625.43V36.0825ZM586.942 45.7045H596.564V84.1925H586.942V45.7045ZM625.429 45.7045H635.051V84.1925H625.429V45.7045Z" fill="#333333"/>
<path fill-rule="evenodd" clip-rule="evenodd" d="M375.258 36.0825H384.88V74.5704H375.258V36.0825ZM413.745 36.0825H423.367V74.5704H413.745V36.0825ZM413.745 74.5704L413.745 84.1924H384.879V74.5704L413.745 74.5704Z" fill="#333333"/>
<path fill-rule="evenodd" clip-rule="evenodd" d="M141.925 36.0825H178.007V45.7045H141.925V36.0825ZM168.385 84.1924V45.7045H178.007V84.1924H168.385ZM144.329 55.3265H168.384V64.9485H144.33V74.5704L168.384 74.5704V84.1924H144.329V74.5704L134.708 74.5704V55.3265L144.329 55.3265Z" fill="#333333"/>
<path fill-rule="evenodd" clip-rule="evenodd" d="M242.955 36.0825H252.577V36.0825H271.821V45.7045H252.577V55.3265L271.821 55.3265V45.7045H281.443V55.3265L281.443 55.3265V64.9485H252.577V74.5704H281.443V84.1924L252.577 84.1924L252.577 84.1924L242.955 84.1924V36.0825Z" fill="#333333"/>
<path fill-rule="evenodd" clip-rule="evenodd" d="M329.553 36.0825H300.687V45.7045H329.553V36.0825ZM329.553 74.5704H300.688V45.7045H291.066V74.5705H300.687V84.1924H329.553V74.5704ZM339.175 45.7045H329.553V74.5705H339.175V45.7045Z" fill="#333333"/>
<path fill-rule="evenodd" clip-rule="evenodd" d="M529.21 36.0825H500.344V45.7045H529.21V36.0825ZM529.21 74.5704H500.344V45.7045H490.722V74.5705H500.344V84.1924H529.21V74.5704ZM529.21 74.5704L529.21 45.7045H538.832V74.5705L529.21 74.5704Z" fill="#333333"/>
<rect x="548.454" y="16.8385" width="9.62199" height="67.3539" fill="#333333"/>
<path fill-rule="evenodd" clip-rule="evenodd" d="M577.319 16.8385H567.697V26.4605H577.319V16.8385ZM577.319 36.0825H567.697V84.1924H577.319V36.0825Z" fill="#333333"/>
<path fill-rule="evenodd" clip-rule="evenodd" d="M654.295 16.8385H644.673V26.4605H654.295V16.8385ZM654.295 36.0825H644.673V84.1924H654.295V36.0825Z" fill="#333333"/>
<path fill-rule="evenodd" clip-rule="evenodd" d="M194.846 16.8385H185.224V36.0825H185.224V45.7045H185.224V74.5705L185.224 74.5705V84.1925H194.845H194.846H204.467V74.5705L194.846 74.5705V45.7045H204.468V36.0825H194.846V16.8385Z" fill="#333333"/>
<path fill-rule="evenodd" clip-rule="evenodd" d="M223.711 16.8385H214.089V74.5705L214.089 84.1925H223.711H223.711H233.333V74.5705L223.711 74.5705V45.7045H233.333V36.0825H223.711V16.8385Z" fill="#333333"/>
<path fill-rule="evenodd" clip-rule="evenodd" d="M471.478 36.0825H442.612V45.7045H471.478V36.0825ZM471.478 74.5704H442.612V84.1924H471.478V74.5704ZM432.989 45.7045H442.611V74.5705H432.989V45.7045ZM481.1 93.8144V74.5705V72.1649V45.7045H471.478V72.1649V74.5705V93.8144H481.1ZM442.612 93.8144H471.478V103.436H442.612V93.8144Z" fill="#333333"/>
<rect x="654.295" y="84.1924" width="24.055" height="24.055" fill="#4EB1E8" fill-opacity="0.22"/>
<rect x="654.295" y="12.0275" width="24.055" height="24.055" fill="#4EB1E8" fill-opacity="0.22"/>
<rect x="14.433" y="84.1924" width="24.055" height="24.055" fill="#4EB1E8" fill-opacity="0.22"/>
<rect x="14.433" y="12.0275" width="24.055" height="24.055" fill="#4EB1E8" fill-opacity="0.22"/>
<path d="M7.45823 27.8534L5.41223 30.8454H7.16123L8.34923 29.0524L9.53723 30.8454H11.3192L9.21823 27.8204L11.0882 25.1584H9.36123L8.37123 26.6434L7.37023 25.1584H5.58823L7.45823 27.8534Z" fill="black"/>
<path d="M26.702 8.008L24.656 11H26.405L27.593 9.207L28.781 11H30.563L28.462 7.975L30.332 5.313H28.605L27.615 6.798L26.614 5.313H24.832L26.702 8.008Z" fill="black"/>
<path d="M26.702 119.864L24.656 122.856H26.405L27.593 121.063L28.781 122.856H30.563L28.462 119.831L30.332 117.169H28.605L27.615 118.654L26.614 117.169H24.832L26.702 119.864Z" fill="black"/>
<path d="M5.6544 100.018L3.6084 103.01H5.3574L6.5454 101.217L7.7334 103.01H9.5154L7.4144 99.9853L9.2844 97.3233H7.5574L6.5674 98.8083L5.5664 97.3233H3.7844L5.6544 100.018Z" fill="black"/>
</svg>
